HIERARCHY
ROOT pelvis
{
  OFFSET 0 100 0
  CHANNELS 6 Xposition Yposition Zposition Zrotation Xrotation Yrotation
  JOINT pelvis_right_femur
  {
    OFFSET -10.78128 -3.44521 -0.5502486
    CHANNELS 3 Zrotation Xrotation Yrotation
    JOINT right_femur_tibia
    {
      OFFSET -0.8047443 -44.0398 -0.1307829
      CHANNELS 3 Zrotation Xrotation Yrotation
      JOINT right_tibia_foot
      {
        OFFSET 3.006224 -47.83518 -5
        CHANNELS 3 Zrotation Xrotation Yrotation
        End Site
        {
          OFFSET 0 -5 15
        }
      }
    }
  }
  JOINT pelvis_left_femur
  {
    OFFSET 10.78128 -3.44521 -0.5502486
    CHANNELS 3 Zrotation Xrotation Yrotation
    JOINT left_femur_tibia
    {
      OFFSET 0.8047443 -44.0398 -0.1307829
      CHANNELS 3 Zrotation Xrotation Yrotation
      JOINT left_tibia_foot
      {
        OFFSET -4.370144 -48.10324 -4.275266
        CHANNELS 3 Zrotation Xrotation Yrotation
        End Site
        {
          OFFSET 0 -5 15
        }
      }
    }
  }
  JOINT pelvis_spine1
  {
    OFFSET 0 6.468898 -3.129235
    CHANNELS 3 Zrotation Xrotation Yrotation
    JOINT spine1
    {
      OFFSET 0 23.15396 4.99043
      CHANNELS 3 Zrotation Xrotation Yrotation
      JOINT spine2
      {
        OFFSET 0 20.79997 -5.064912
        CHANNELS 3 Zrotation Xrotation Yrotation
        JOINT neck
        {
          OFFSET 0 14.38658 9.616178
          CHANNELS 3 Zrotation Xrotation Yrotation
          End Site
          {
            OFFSET 0 20 0
          }
        }
      }
      JOINT right_manubrium
      {
        OFFSET -5.722621 16.35077 3.967754
        CHANNELS 3 Zrotation Xrotation Yrotation
        JOINT right_clavicle
        {
          OFFSET -13.16364 1.694482 -4.693211
          CHANNELS 3 Zrotation Xrotation Yrotation
          JOINT right_humerus
          {
            OFFSET -28.5034 -0.3100689 -2.792744
            CHANNELS 3 Zrotation Xrotation Yrotation
            JOINT right_radius
            {
              OFFSET -25.15693 0.02248979 -1.271978
              CHANNELS 3 Zrotation Xrotation Yrotation
              End Site
              {
                OFFSET -15 0 0
              }
            }
          }
        }
      }
      JOINT left_manubrium
      {
        OFFSET 5.722621 16.35077 3.967754
        CHANNELS 3 Zrotation Xrotation Yrotation
        JOINT left_clavicle
        {
          OFFSET 13.16364 1.694482 -4.693211
          CHANNELS 3 Zrotation Xrotation Yrotation
          JOINT left_humerus
          {
            OFFSET 29.39168 -1.063119 -2.237045
            CHANNELS 3 Zrotation Xrotation Yrotation
            JOINT left_radius
            {
              OFFSET 24.59957 -0.9528479 0.9047498
              CHANNELS 3 Zrotation Xrotation Yrotation
              End Site
              {
                OFFSET 15 -0 -0
              }
            }
          }
        }
      }
    }
  }
}
MOTION
Frames: 13
Frame Time: 0.0416666666667
0 103.5113 0 1.709363 -2.506581 0.1040703 2.131543 -10.54678 8.399216 -0 37.90269 -0 -5.683716 -18.33131 -4.215035 -7.108322 10.13777 -22.6938 -0 3.65797 -0 8.24482 -14.61462 25.55934 -2.704541 -3.603437 4.477077 3.307926 9.711463 -8.391264 1.279017 21.1905 6.5494 2.738782 -26.16374 9.525812 6.036767 -19.01942 11.27278 86.43249 33.6762 -21.20835 -0 0 15.26729 -7.195617 8.315486 3.841645 6.665393 -21.11322 -0.6617234 -94.84301 25.57282 22.73759 0 0 -14.53206 8.654544 16.72427 3.840167
0.361332 103.4615 1.496933 1.531115 -1.739298 0.1345999 2.644523 -13.3113 8.889706 -0 37.95817 -0 -5.243215 -17.88752 -4.257876 -7.189682 11.01063 -23.14578 -0 3.860346 -0 7.934328 -15.98245 25.84399 -2.749414 -3.678382 4.457539 3.330932 9.7065 -8.420742 1.289161 21.20346 6.530246 2.717202 -26.16314 9.537348 6.051863 -19.04673 11.26895 86.42929 33.57706 -21.26846 -0 0 15.34777 -7.167365 8.293365 3.78087 6.691078 -21.11124 -0.6386221 -94.93093 25.61352 22.787 0 0 -14.3897 8.58638 16.84711 3.887651
0.6351913 103.3448 3.072315 1.030145 -1.34158 0.1866387 3.227879 -16.81671 8.116754 -0 36.98287 -0 -5.875249 -15.70148 -3.952672 -6.89481 12.10972 -23.2998 -0 4.776909 -0 5.283965 -18.64128 25.11025 -2.436938 -3.243938 4.526311 3.279178 9.719574 -8.368855 1.220409 21.03465 6.706933 2.873531 -26.4179 9.544568 5.937612 -18.89168 11.29817 86.68602 34.01982 -21.35363 -0 0 14.78622 -7.037493 8.273355 3.950864 6.636491 -21.25231 -0.799687 -94.44344 25.63518 22.4881 0 0 -15.74541 8.951053 16.04234 3.781563
0.8644753 103.1793 4.737559 0.6001739 -0.5493909 0.257184 3.92014 -20.14189 8.00413 -0 35.60032 -0 -5.857156 -14.22178 -3.707469 -6.677562 12.60314 -23.14313 -0 5.173543 -0 3.984255 -20.38926 24.5289 -2.256712 -3.00621 4.554265 3.253143 9.729571 -8.348905 1.191987 20.90522 6.820322 2.974271 -26.55836 9.565098 5.876259 -18.80512 11.32411 86.8287 34.27788 -21.39537 -0 0 14.47918 -7.005221 8.324498 4.050681 6.648687 -21.34458 -0.8540284 -94.0914 25.47516 22.21261 0 0 -16.50763 9.29861 15.57244 3.536968
1.074165 102.9114 6.610669 0.0920962 0.6082906 0.3499998 4.873885 -24.22243 7.917833 -0 32.77774 -0 -5.654123 -12.42263 -3.296351 -6.453276 12.85164 -22.48232 -0 5.39333 -0 3.368674 -21.95645 23.83249 -2.057143 -2.808172 4.531325 3.31079 9.726288 -8.448659 1.14666 20.70181 6.990286 3.099409 -26.91371 9.644164 5.802919 -18.73476 11.35222 87.19139 34.38423 -21.87051 -0 0 14.10896 -6.713347 8.221607 3.989204 6.74384 -21.56554 -0.9505809 -93.80823 25.61313 21.98042 0 0 -17.72153 9.521143 15.05416 3.565654
1.289079 102.4905 8.803188 -0.3502606 1.799941 0.4806535 5.793426 -28.08481 7.68765 -0 28.93196 -0 -5.443699 -10.49349 -2.752893 -6.29519 12.94435 -21.45581 -0 5.512679 -0 3.452272 -23.06218 23.13098 -1.876086 -2.63062 4.501099 3.36748 9.728647 -8.548141 1.099612 20.49713 7.160276 3.22739 -27.23057 9.712829 5.738268 -18.66804 11.38278 87.53708 34.49136 -22.32556 -0 0 13.75078 -6.486355 8.155871 3.96104 6.844787 -21.78946 -1.045078 -93.50269 25.68268 21.72054 0 0 -18.88902 9.745572 14.53774 3.576072
1.521174 101.8951 11.44326 -0.7318912 3.008088 0.6799528 6.639426 -31.76002 7.285661 -0 24.30786 -0 -5.314739 -8.324103 -2.091197 -6.193795 13.07935 -20.19819 -0 5.793263 -0 3.855789 -23.86779 22.33055 -1.698225 -2.471816 4.453399 3.442537 9.733979 -8.678112 1.042027 20.26877 7.35062 3.370394 -27.5757 9.78367 5.675893 -18.60561 11.41528 87.93823 34.56878 -22.8897 -0 0 13.37053 -6.248335 8.075973 3.928971 6.970004 -22.06003 -1.1613 -93.19278 25.79741 21.45584 0 0 -20.18324 9.92153 13.98772 3.682184
1.769775 101.1467 14.64919 -1.054927 4.01963 0.9878801 7.298754 -34.72605 6.67203 -0 19.70525 -0 -5.449569 -6.025887 -1.39872 -6.103024 13.39512 -18.87611 -0 6.633127 -0 4.134653 -24.25966 21.30719 -1.531808 -2.322985 4.401411 3.513499 9.751569 -8.809999 0.9749006 20.04012 7.542999 3.521073 -27.88001 9.829877 5.621659 -18.54069 11.44977 88.34462 34.65195 -23.46164 -0 0 12.97691 -6.082255 8.027753 3.941775 7.091751 -22.34998 -1.299503 -92.86214 25.89721 21.1787 0 0 -21.49292 10.04632 13.41307 3.856934
2.026575 100.3318 18.52674 -1.380419 4.695497 1.439595 7.776378 -36.57235 5.907443 -0 15.92777 -0 -5.936975 -3.790887 -0.7913043 -5.937818 13.94496 -17.5785 -0 8.516454 -0 3.794409 -24.06092 19.84846 -1.378227 -2.181022 4.35136 3.570884 9.788026 -8.936142 0.8979353 19.82198 7.727718 3.675519 -28.11628 9.836725 5.579543 -18.47007 11.48594 88.74658 34.74808 -24.01923 -0 0 12.57242 -6.017111 8.026549 4.011784 7.198344 -22.65478 -1.465177 -92.51421 25.98448 20.8966 0 0 -22.78337 10.09637 12.82271 4.123047
2.28396 99.60061 23.12664 -1.768727 4.910664 2.025774 8.157748 -36.86681 5.159185 -0 13.7295 -0 -6.751936 -1.964299 -0.4169612 -5.616246 14.60591 -16.34068 -0 11.94265 -0 2.549182 -22.95929 17.84417 -1.243213 -2.040057 4.317327 3.595481 9.853642 -9.036138 0.8141048 19.63953 7.881672 3.821349 -28.2276 9.779377 5.556454 -18.38925 11.5236 89.10736 34.87299 -24.49109 -0 0 12.17315 -6.109063 8.104698 4.161316 7.263619 -22.95067 -1.658691 -92.15482 26.03922 20.62003 0 0 -23.94664 10.0478 12.24448 4.481795
2.543095 99.13885 28.40274 -2.238904 4.639303 2.660225 8.570055 -35.43384 4.653003 -0 13.3828 -0 -7.730962 -0.8971878 -0.3878816 -5.10579 15.01747 -15.14898 -0 17.277 -0 0.4867266 -20.69581 15.41941 -1.131344 -1.895814 4.314326 3.569956 9.955682 -9.091519 0.7286932 19.51778 7.981158 3.944173 -28.16862 9.639624 5.55746 -18.29795 11.56203 89.39021 35.03207 -24.81153 -0 0 11.80587 -6.39732 8.283087 4.399476 7.264094 -23.21026 -1.875402 -91.80248 26.05592 20.37097 0 0 -24.87061 9.876485 11.71586 4.934012
2.813775 99.10685 34.18818 -2.723326 3.954213 3.184917 9.029728 -32.4441 4.507197 -0 14.477 -0 -8.668798 -0.8252194 -0.6974816 -4.464822 14.63006 -13.99218 -0 24.53862 -0 -1.904853 -17.30904 12.98167 -1.046549 -1.745688 4.358174 3.479231 10.09552 -9.08403 0.6487012 19.47965 8.00531 4.030092 -27.9099 9.40912 5.583607 -18.20241 11.59947 89.5544 35.22155 -24.91566 -0 0 11.51009 -6.904003 8.56623 4.727125 7.18035 -23.40094 -2.105103 -91.48866 26.04392 20.18654 0 0 -25.44567 9.55936 11.27761 5.480957
3.103233 99.57542 40.2313 -3.074152 2.993618 3.436453 9.361859 -28.32031 4.607979 -0 16.05396 -0 -9.440345 -1.793008 -1.179064 -3.829149 12.90759 -12.88829 -0 33.25957 -0 -4.042115 -13.29257 10.99114 -0.9907406 -1.590077 4.460874 3.315095 10.26506 -9.000401 0.5804653 19.53647 7.946106 4.072451 -27.45253 9.095437 5.62937 -18.11677 11.63329 89.56564 35.42993 -24.75797 -0 0 11.33051 -7.627713 8.93678 5.139669 7.005762 -23.49446 -2.333929 -91.25033 26.02992 20.11337 0 0 -25.60876 9.079446 10.95675 6.130766
